/* XPM */
static char * android_notifier_desktop_xpm[] = {
"36 36 153 2",
"  	c None",
". 	c #869CB9",
"+ 	c #8498B4",
"@ 	c #859BB7",
"# 	c #869CB7",
"$ 	c #6A85A8",
"% 	c #6783A8",
"& 	c #6783A7",
"* 	c #6784A9",
"= 	c #6D8AAF",
"- 	c #6A83A5",
"; 	c #6681A5",
"> 	c #637EA1",
", 	c #627EA1",
"' 	c #5D7391",
") 	c #5D718B",
"! 	c #617B9D",
"~ 	c #607B9D",
"{ 	c #6782A6",
"] 	c #657FA2",
"^ 	c #647FA3",
"/ 	c #647A96",
"( 	c #AEAFB1",
"_ 	c #C8C7C5",
": 	c #708095",
"< 	c #637EA2",
"[ 	c #6984A8",
"} 	c #627B9E",
"| 	c #79899E",
"1 	c #F4F3F2",
"2 	c #FFFFFF",
"3 	c #959EAB",
"4 	c #607BA0",
"5 	c #7B8CA2",
"6 	c #F2F1F0",
"7 	c #9BA4B1",
"8 	c #7688A0",
"9 	c #EEEDEC",
"0 	c #FFFFFE",
"a 	c #949FAE",
"b 	c #617CA0",
"c 	c #71849E",
"d 	c #E8E8E7",
"e 	c #FDFCFA",
"f 	c #8997A8",
"g 	c #617CA1",
"h 	c #647EA2",
"i 	c #6C819D",
"j 	c #E2E2E2",
"k 	c #F8F7F6",
"l 	c #808FA4",
"m 	c #627DA1",
"n 	c #6581A5",
"o 	c #677E9C",
"p 	c #DBDCDD",
"q 	c #7689A0",
"r 	c #617DA1",
"s 	c #607B9E",
"t 	c #6480A4",
"u 	c #627DA0",
"v 	c #617DA0",
"w 	c #637B9B",
"x 	c #D3D5D7",
"y 	c #EBEBEA",
"z 	c #6E839D",
"A 	c #607CA0",
"B 	c #6682A6",
"C 	c #5F7A9C",
"D 	c #637FA4",
"E 	c #5F799B",
"F 	c #CBCED1",
"G 	c #E3E3E3",
"H 	c #677E9B",
"I 	c #6581A6",
"J 	c #5F789B",
"K 	c #617DA2",
"L 	c #5F7A9E",
"M 	c #5C789B",
"N 	c #A8AFB9",
"O 	c #BBBFC4",
"P 	c #60799B",
"Q 	c #5D7799",
"R 	c #607B9F",
"S 	c #5E789B",
"T 	c #5D789B",
"U 	c #677F9F",
"V 	c #69809F",
"W 	c #5D789C",
"X 	c #5C7596",
"Y 	c #5E799D",
"Z 	c #5C7699",
"` 	c #556D8D",
" .	c #546B89",
"..	c #5B7598",
"+.	c #5F7A9F",
"@.	c #5A7495",
"#.	c #5D779A",
"$.	c #5B7496",
"%.	c #5A7496",
"&.	c #5B718D",
"*.	c #9FA2A5",
"=.	c #B1B2B2",
"-.	c #65758B",
";.	c #597396",
">.	c #597192",
",.	c #587192",
"'.	c #567092",
").	c #6E7E92",
"!.	c #F5F4F1",
"~.	c #8E97A3",
"{.	c #546E90",
"].	c #5B7597",
"^.	c #566E8F",
"/.	c #587293",
"(.	c #566F8F",
"_.	c #556E8F",
":.	c #5E7491",
"<.	c #AEB5BE",
"[.	c #C1C5CB",
"}.	c #6D8098",
"|.	c #546D8E",
"1.	c #597394",
"2.	c #546C8C",
"3.	c #577091",
"4.	c #556D8C",
"5.	c #546C8B",
"6.	c #536B8B",
"7.	c #556C8B",
"8.	c #576E8C",
"9.	c #526885",
"0.	c #4D617D",
"a.	c #506684",
"b.	c #4F6582",
"c.	c #526987",
"d.	c #536A89",
"e.	c #4F6583",
"f.	c #4F6683",
"g.	c #506683",
"h.	c #485E78",
"i.	c #526887",
"j.	c #485D78",
"k.	c #4C627E",
"l.	c #4D627F",
"m.	c #455973",
"n.	c #4A5F7A",
"o.	c #4B617D",
"p.	c #42546C",
"q.	c #4A5F7B",
"r.	c #485C77",
"s.	c #3F5067",
"t.	c #475B75",
"u.	c #3D4D63",
"v.	c #38495E",
"                                                                        ",
"                                                                        ",
"                                                                        ",
"                                                                        ",
"                                                                        ",
"                                                                        ",
"                                                                        ",
"            . + + + + + + + + + + + + + + + + + + + + + + @ #           ",
"          $ % & & & & & & & & & & * * % & & & & & & & & & & = -         ",
"          ; > > > > > > > > > > , ' ) ! > > > > > > > > > > & ~         ",
"          { ] ] ] ] ] ] ] ] ] ^ / ( _ : < ] ] ] ] ] ] ] ] ] [ }         ",
"          { ] ] ] ] ] ] ] ] ] < | 1 2 3 4 ] ] ] ] ] ] ] ] ] [ }         ",
"          { ] ] ] ] ] ] ] ] ] < 5 6 2 7 4 ] ] ] ] ] ] ] ] ] [ }         ",
"          { ] ] ] ] ] ] ] ] ] < 8 9 0 a b ] ] ] ] ] ] ] ] ] [ }         ",
"          { ] ] ] ] ] ] ] ] ] < c d e f g ] ] ] ] ] ] ] ] ] [ }         ",
"          { ] ] ] ] ] ] ] ] ] h i j k l m ] ] ] ] ] ] ] ] ] [ }         ",
"          n > > > > > > > > > , o p 6 q r > > > > > > > > > & s         ",
"          t u u u u u u u u u v w x y z A u u u u u u u u u B C         ",
"          D b b b b b b b b b b E F G H 4 b b b b b b b b b I J         ",
"          K L L L L L L L L L L M N O P L L L L L L L L L L D Q         ",
"          R S S S S S S S S S S T U V W S S S S S S S S S S g X         ",
"          Y Z Z Z Z Z Z Z Z Z Z Z `  ...Q Z Z Z Z Z Z Z Z Z +.@.        ",
"          #.$.$.$.$.$.$.$.$.$.%.&.*.=.-.;.$.$.$.$.$.$.$.$.$.S >.        ",
"          %.,.,.,.,.,.,.,.,.,.'.).!.2 ~.{.,.,.,.,.,.,.,.,.,.].^.        ",
"          /.(.(.(.(.(.(.(.(.(._.:.<.[.}.|.(.(.(.(.(.(.(.(.(.1.2.        ",
"          3.4.4.4.4.4.2.5.5.5.5.6.7.8.2.4.4.4.4.4.4.4.4.4.4.,.9.        ",
"          0.a.b.b.b.b.a.c.c.c.c.c.d.e.b.b.b.b.b.b.b.b.b.b.f.g.          ",
"                      h.i.e.e.e.c.j.                                    ",
"                        f.k.l.b.m.                                      ",
"                        l.n.o.p.                                        ",
"                        q.r.s.                                          ",
"                        t.u.                                            ",
"                        v.                                              ",
"                                                                        ",
"                                                                        ",
"                                                                        "};
